<svg width="30" height="30" viewBox="0 0 30 30" fill="none" xmlns="http://www.w3.org/2000/svg">
<path d="M20.7092 17.3157C20.2427 14.3879 17.7 12.1427 14.6427 12.1427C11.5854 12.1427 9.04267 14.3879 8.57627 17.3157C6.15927 18.3095 4.57794 20.7863 4.78209 23.4766C5.00978 26.4743 7.44283 28.9027 10.4412 29.1255C11.5994 29.2117 12.7494 28.9735 13.7673 28.4365C14.3237 28.1434 14.9619 28.1432 15.5179 28.4366C16.4007 28.9014 17.3836 29.1438 18.3813 29.1427C18.5351 29.1427 18.6897 29.137 18.8439 29.1256C21.8425 28.9029 24.2754 26.4745 24.5032 23.4767C24.7075 20.7863 23.1261 18.3095 20.7092 17.3157ZM21.6543 23.2601C21.5327 24.8607 20.2337 26.1572 18.6325 26.2762C18.0099 26.3233 17.3936 26.1958 16.8509 25.9093C16.1703 25.5501 15.4124 25.3623 14.6428 25.3623C13.8733 25.3623 13.1154 25.5501 12.4348 25.9093C11.8921 26.1955 11.2771 26.3229 10.6531 26.2762C9.05193 26.1573 7.75279 24.8608 7.63138 23.2601C7.50658 21.6168 8.62185 20.123 10.2253 19.7853C10.551 19.7167 10.8425 19.5365 11.0495 19.276C11.2566 19.0154 11.3661 18.6907 11.3594 18.3579L11.357 18.2856C11.357 16.4738 12.8309 14.9999 14.6427 14.9999C16.4545 14.9999 17.9284 16.4738 17.9284 18.2805L17.9262 18.3579C17.9193 18.6907 18.0288 19.0155 18.2359 19.2761C18.4429 19.5367 18.7345 19.7168 19.0602 19.7853C20.6639 20.123 21.7791 21.6168 21.6543 23.2601Z" fill="#F1CDB3"/>
<path d="M14.6428 9.2857C17.203 9.2857 19.2857 7.20305 19.2857 4.64285C19.2857 2.08266 17.203 0 14.6428 0C12.0826 0 9.99996 2.08277 9.99996 4.64285C9.99996 7.20293 12.0829 9.2857 14.6428 9.2857ZM14.6428 2.85715C15.6275 2.85715 16.4285 3.65813 16.4285 4.64285C16.4285 5.62758 15.6275 6.42855 14.6428 6.42855C13.6581 6.42855 12.8571 5.62758 12.8571 4.64285C12.8571 3.65813 13.6582 2.85715 14.6428 2.85715Z" fill="#F1CDB3"/>
<path d="M9.28571 10.1667C9.28571 7.60655 7.20293 5.52389 4.64285 5.52389C2.08277 5.52389 0 7.60666 0 10.1667C0 12.7268 2.08266 14.8096 4.64285 14.8096C7.20305 14.8096 9.28571 12.7268 9.28571 10.1667ZM4.64285 11.9524C3.65813 11.9524 2.85715 11.1515 2.85715 10.1667C2.85715 9.18201 3.65813 8.38104 4.64285 8.38104C5.62758 8.38104 6.42856 9.18201 6.42856 10.1667C6.42856 11.1515 5.62746 11.9524 4.64285 11.9524Z" fill="#F1CDB3"/>
<path d="M24.6428 5.52376C22.0826 5.52376 19.9999 7.60654 19.9999 10.1666C19.9999 12.7267 22.0828 14.8095 24.6428 14.8095C27.203 14.8095 29.2856 12.7268 29.2856 10.1666C29.2856 7.60642 27.203 5.52376 24.6428 5.52376ZM24.6428 11.9524C23.6581 11.9524 22.8571 11.1515 22.8571 10.1667C22.8571 9.18201 23.6582 8.38103 24.6428 8.38103C25.6275 8.38103 26.4285 9.18201 26.4285 10.1667C26.4285 11.1515 25.6275 11.9524 24.6428 11.9524Z" fill="#F1CDB3"/>
</svg>
