<svg width="30" height="30" fill="none" xmlns="http://www.w3.org/2000/svg"><path d="M20.71 17.316a6.153 6.153 0 0 0-6.067-5.173 6.153 6.153 0 0 0-6.067 5.173 6.176 6.176 0 0 0-3.794 6.16c.228 2.998 2.66 5.427 5.66 5.65a6.141 6.141 0 0 0 3.325-.69 1.852 1.852 0 0 1 1.75 0 6.132 6.132 0 0 0 3.327.69c2.998-.223 5.431-2.652 5.66-5.65a6.175 6.175 0 0 0-3.795-6.16Zm.944 5.944a3.294 3.294 0 0 1-3.021 3.016 3.281 3.281 0 0 1-1.782-.367 4.73 4.73 0 0 0-4.416 0A3.285 3.285 0 0 1 7.63 23.26a3.3 3.3 0 0 1 2.594-3.475 1.429 1.429 0 0 0 1.134-1.427l-.002-.072A3.29 3.29 0 0 1 14.643 15a3.288 3.288 0 0 1 3.285 3.28l-.002.078a1.428 1.428 0 0 0 1.134 1.427 3.3 3.3 0 0 1 2.594 3.475ZM14.643 9.286a4.648 4.648 0 0 0 4.643-4.643A4.648 4.648 0 0 0 14.643 0 4.648 4.648 0 0 0 10 4.643a4.648 4.648 0 0 0 4.643 4.643Zm0-6.429a1.787 1.787 0 0 1 0 3.572 1.788 1.788 0 0 1-1.786-1.786c0-.985.801-1.786 1.786-1.786Zm-5.357 7.31a4.648 4.648 0 0 0-4.643-4.643A4.648 4.648 0 0 0 0 10.167a4.648 4.648 0 0 0 4.643 4.643 4.648 4.648 0 0 0 4.643-4.643Zm-4.643 1.785c-.985 0-1.786-.8-1.786-1.785 0-.985.801-1.786 1.786-1.786s1.786.801 1.786 1.786-.802 1.785-1.786 1.785Zm20-6.428A4.648 4.648 0 0 0 20 10.167a4.648 4.648 0 0 0 4.643 4.643 4.648 4.648 0 0 0 4.643-4.643 4.648 4.648 0 0 0-4.643-4.643Zm0 6.428c-.985 0-1.786-.8-1.786-1.785 0-.985.801-1.786 1.786-1.786s1.785.801 1.785 1.786-.8 1.785-1.785 1.785Z" fill="#F1CDB3"/></svg>